<?xml version="1.0" encoding="UTF-8"?>
<!DOCTYPE svg PUBLIC "-//W3C//DTD SVG 1.1//EN" "http://www.w3.org/Graphics/SVG/1.1/DTD/svg11.dtd">
<!-- Creator: CorelDRAW -->
<svg xmlns="http://www.w3.org/2000/svg" xml:space="preserve" width="10.6906mm" height="8.6055mm" version="1.1" style="shape-rendering:geometricPrecision; text-rendering:geometricPrecision; image-rendering:optimizeQuality; fill-rule:evenodd; clip-rule:evenodd"
viewBox="0 0 18.42 14.82"
 xmlns:xlink="http://www.w3.org/1999/xlink"
 xmlns:xodm="http://www.corel.com/coreldraw/odm/2003">
 <defs>
  <style type="text/css">
   <![CDATA[
    .fil0 {fill:white}
   ]]>
  </style>
 </defs>
 <g id="Camada_x0020_1">
  <metadata id="CorelCorpID_0Corel-Layer"/>
  <path class="fil0" d="M14.8 13.46c-0.37,0 -0.8,-0.64 -0.37,-1.08 0.53,-0.54 1.51,0.19 0.92,0.89 -0.13,0.15 -0.35,0.19 -0.55,0.19zm-8.43 -0.7c0,-0.48 0.71,-0.78 1.09,-0.38 0.48,0.51 -0.1,1.33 -0.76,1 -0.25,-0.13 -0.32,-0.36 -0.33,-0.62zm5.92 -5.22c-0.02,0.21 -0.07,0.74 -0.07,0.93l-2.54 0c-0.05,-0.56 -0.12,-1.3 -0.16,-1.86l2.85 0 -0.08 0.93zm0.62 0.83c0,-0.26 0.14,-1.36 0.14,-1.76l2.89 0c-0.06,0.21 -0.49,1.68 -0.56,1.75 -0.08,0.09 -0.27,0.11 -0.4,0.11l-2.07 0 0 -0.1zm-5.67 0.1c-0.31,0 -0.53,0.04 -0.69,-0.13 -0.09,-0.1 -0.62,-1.57 -0.68,-1.72l2.96 0c0,0.17 0.1,1.26 0.13,1.54 0.04,0.31 0.04,0.31 -0.05,0.31l-1.68 0zm3.62 -2.54c-0.65,0 -1.36,0.14 -1.41,-0.38l-0.13 -1.66c0.21,-0.02 0.56,0 0.81,0l2.31 0c0.21,0 0.14,-0.06 0.12,0.37l-0.06 0.85c-0.08,0.96 0.17,0.83 -1.63,0.83zm2.4 -2.05l3.54 0c-0.08,0.26 -0.47,1.72 -0.63,1.89 -0.17,0.17 -0.34,0.16 -0.67,0.16l-2.39 0c0,-0.36 0.11,-1.6 0.14,-2.05zm-4.49 1.82c0,0.05 0.01,0.21 0.03,0.25 -0.76,0 -1.52,0 -2.28,0 -1.15,0 -0.83,0.16 -1.49,-1.55 -0.02,-0.05 -0.21,-0.49 -0.21,-0.53 1.25,0.02 2.54,0.01 3.8,0.01l0.16 1.82zm-6.27 -4.05c0.14,0.26 2.45,6.39 2.66,6.93l0.73 1.88c0.37,0.96 -0.42,0.66 -0.77,1.65 -0.49,1.46 0.65,2.87 2.16,2.67 0.92,-0.12 1.54,-0.83 1.67,-1.73 0.03,-0.25 0.04,-0.61 0.05,-0.87l3.92 0 -0.01 0.23c-0.09,0.71 0.1,1.35 0.58,1.84 0.91,0.91 2.53,0.74 3.18,-0.56 0.65,-1.3 -0.31,-2.85 -1.81,-2.85l-6.28 0c-1.07,0 -1.25,0.12 -1.42,-0.94 2.62,0 5.23,-0.01 7.84,-0.01 1.4,0 1.38,0.04 1.83,-1.54 0.07,-0.25 0.19,-0.6 0.27,-0.86l1.26 -4.07c0.12,-0.41 -0.01,-0.76 -0.42,-0.88 -0.25,-0.07 -0.76,-0.04 -1.04,-0.04l-12.26 0c-0.46,0 -0.53,-0.38 -0.61,-0.62l-0.51 -1.35c-0.33,-0.64 -0.84,-0.46 -1.46,-0.47 -0.61,-0.02 -2.21,-0.27 -2.06,0.77 0.11,0.77 1.18,0.58 1.94,0.56 0.27,-0.01 0.41,0.05 0.55,0.28z"/>
 </g>
</svg>
