<?xml version="1.0" encoding="UTF-8"?>
<!DOCTYPE svg PUBLIC "-//W3C//DTD SVG 1.1//EN" "http://www.w3.org/Graphics/SVG/1.1/DTD/svg11.dtd">
<!-- Creator: CorelDRAW -->
<svg xmlns="http://www.w3.org/2000/svg" xml:space="preserve" width="32.6971mm" height="40.737mm" version="1.1" style="shape-rendering:geometricPrecision; text-rendering:geometricPrecision; image-rendering:optimizeQuality; fill-rule:evenodd; clip-rule:evenodd"
viewBox="0 0 293.58 365.77"
 xmlns:xlink="http://www.w3.org/1999/xlink"
 xmlns:xodm="http://www.corel.com/coreldraw/odm/2003">
 <defs>
  <style type="text/css">
   <![CDATA[
    .fil0 {fill:white}
   ]]>
  </style>
 </defs>
 <g id="Camada_x0020_1">
  <metadata id="CorelCorpID_0Corel-Layer"/>
  <path class="fil0" d="M17.84 364.21c-9.18,5.15 -20.07,-3.22 -17.44,-13.41 5.24,-20.33 10.74,-40.74 15.75,-61.1 0.8,-3.25 1.52,-12.1 5.83,-11.78 3.1,0.23 8.83,5.89 11.81,8.29l43.12 34.51c10.42,7.94 1.85,9.27 -11.72,16.9l-47.35 26.58zm205.82 -349.39c12.78,-16.59 36.81,-19.74 53.4,-6.96l1.7 1.3c16.59,12.78 19.74,36.81 6.96,53.4l-18 23.4c-2.89,3.74 -8.26,4.44 -12,1.56l-48.51 -37.33c-3.74,-2.89 -4.44,-8.26 -1.56,-12l18 -23.4 0 0.04zm-45.22 54.79c4.04,-5.22 11.55,-6.22 16.78,-2.18l45.7 35.18c5.22,4.04 6.22,11.55 2.18,16.78l-137.08 178.14c-8.88,11.6 -7.44,11.61 -18.3,2.8 -14.26,-11.55 -28.59,-23.34 -43.05,-34.61 -2.73,-2.12 -9.23,-5.68 -9.08,-9.23 0.13,-2.99 5.25,-8.08 7.29,-10.68l105.23 -136.76 30.34 -39.43z"/>
 </g>
</svg>
